<svg xmlns="http://www.w3.org/2000/svg" width="29.766" height="30.005"><path d="M29.063.709a3.531 3.531 0 01.7 2.52q0 15.643-.059 23.5a2.739 2.739 0 01-3.281 3.281h-9.668a2.175 2.175 0 01-1.406-.353 1.6 1.6 0 01-.352-1.347v-5.069q0-3.368.059-5.068a1.828 1.828 0 00-.293-1.2 1.354 1.354 0 00-1.113-.263 12.594 12.594 0 01-2.461 0q-.7 0-.7-.528c0-.39.234-.586.7-.586h2.7a1.131 1.131 0 00.967-.234 1.207 1.207 0 00.205-.937 22.813 22.813 0 010-3.281 3.443 3.443 0 011.23-2.782 3.815 3.815 0 013.047-.615 7.984 7.984 0 012.637.762.17.17 0 01.117.059q.761.352.586.819-.294.646-1.23.234a7.266 7.266 0 00-2.93-.7 1.94 1.94 0 00-2.109 1.7 6.069 6.069 0 00-.205 1.349c-.02.468-.02 1 0 1.582s.029 1.035.029 1.347v.234c.038.313.352.469.938.469h4.512c.664 0 1 .2 1 .586q0 .822-1.055.7-1.406 0-4.453-.116a.907.907 0 00-.791.176 1.254 1.254 0 00-.205.82q.117 4.863 0 9.785 0 1.113 1.055 1.113 1.406 0 2.93.028t3.4.089q1.875.059 2.93.058a2.129 2.129 0 001.523-.381 2.723 2.723 0 00.41-1.611l.176-23.2q0-1.581-.352-1.9a3.833 3.833 0 00-1.992-.381Q18.7 1.135 3.466 1.134q-1.406 0-1.7.323a3.653 3.653 0 00-.41 1.787L1.18 26.33q0 1.581.381 1.934a3.216 3.216 0 001.9.351q3.4 0 5.039.06 1.23 0 1.289.586 0 .7-1.23.7H2.641a2.524 2.524 0 01-2.637-2.754V15.078h.059V3.124a3.431 3.431 0 01.7-2.461 3.168 3.168 0 012.4-.644h23.379a3.534 3.534 0 012.521.69z" fill="#fff"/></svg>