<svg xmlns="http://www.w3.org/2000/svg" width="27.891" height="30"><path d="M17.226 22.675a6.267 6.267 0 01-1.055 4.98 5.85 5.85 0 01-3.164 1.935 17.218 17.218 0 01-2.285.41h-2.93a7.082 7.082 0 01-1.055-.118 16.3 16.3 0 01-3.809-.937 5.1 5.1 0 01-2.637-2.636 10.029 10.029 0 01-.293-1.23v-1.173a.522.522 0 00.059-.234 3.814 3.814 0 01.469-1.523 2.236 2.236 0 01.234-.409q.292-.117.615.409a1 1 0 01.146.938 3.934 3.934 0 00-.234 2.05 3.185 3.185 0 001.758 2.462 5.5 5.5 0 001.875.7 18.076 18.076 0 005.1.41 8.881 8.881 0 002.813-.41 4.518 4.518 0 002.578-1.7 4.918 4.918 0 00.645-2.7 4.11 4.11 0 00-1.465-3.339.4.4 0 00-.293-.118 49.752 49.752 0 00-5.8-.409 16.626 16.626 0 00-3.691.527 1.25 1.25 0 00-.322.059 1.9 1.9 0 00-.322.117.552.552 0 01-.381-.234 1.533 1.533 0 01-.293-.469.314.314 0 01.029-.353 18.689 18.689 0 017.031-.878c.156 0 .41.02.762.059a7.871 7.871 0 00.82.058 7.486 7.486 0 00-.586-.5q-.411-.322-.586-.439a2.8 2.8 0 01-1.113-2.871.245.245 0 00-.059-.177H9.67a7.428 7.428 0 01-2.637 0 6.649 6.649 0 01-5.449-4.453 8.474 8.474 0 01-.41-4.159 6.953 6.953 0 011.23-3.281 7.113 7.113 0 014.395-2.7Q7.092.28 7.59.193a4.7 4.7 0 01.732-.088 67.7 67.7 0 017.969 0q.233 0 .352.41a.568.568 0 01-.059.556.59.59 0 01-.527.265h-2.754a.665.665 0 00-.293.058 1.9 1.9 0 01.322.235 1.111 1.111 0 01.264.292 7.106 7.106 0 012.4 4.512 7.737 7.737 0 01-1.758 6.035 13.758 13.758 0 01-1.934 1.465 6.705 6.705 0 00-.7.587 1.358 1.358 0 00-.176 2.167 4.708 4.708 0 001.172.938q2.578 1.759 2.7 1.876a5.313 5.313 0 011.934 3.163zm-3.75-11.308a5.333 5.333 0 001.289-3.105 5.655 5.655 0 00-.586-3.575A5.834 5.834 0 009.96 1.464a7.794 7.794 0 00-4.687.762 4.6 4.6 0 00-2.461 2.813 7.279 7.279 0 00-.469 2.813 6.247 6.247 0 00.82 3.1 5.854 5.854 0 005.449 2.872 7.225 7.225 0 004.863-2.461zm14.414 2.871v.352a.889.889 0 01-.879.469h-3.105c-.274 0-.41.116-.41.351v3.165q0 .877-.586.878a.768.768 0 01-.645-.878v-3.223a.259.259 0 00-.293-.293h-3.227q-.821 0-.82-.587 0-.643.82-.644h3.164q.352 0 .352-.411v-3.4q.117-.645.645-.528.585 0 .586.528v3.516q0 .293.352.293h3.164a1.011 1.011 0 01.879.41z" fill="#fff"/></svg>