<svg xmlns="http://www.w3.org/2000/svg" width="30" height="30"><path d="M30 27.066a3.1 3.1 0 01-.645 2.228 3.281 3.281 0 01-2.227.7H2.812A2.491 2.491 0 010 27.24v-5.977q0-1.055.645-1.055.527.059.527 1.055v5.684a1.631 1.631 0 001.816 1.874h24.023a1.58 1.58 0 001.816-1.758v-9.434a1.378 1.378 0 00-.234-.908.933.933 0 00-.82-.2 1.675 1.675 0 01-.879 0 4.918 4.918 0 00-3.076.322 4.236 4.236 0 00-1.787 2.548 5.653 5.653 0 01-2.842 3.341 7.132 7.132 0 01-4.365 1.055 8.857 8.857 0 01-4.629-1.875 7.118 7.118 0 01-2.578-3.926 1.686 1.686 0 00-1.992-1.465H1.289Q0 16.638 0 15.407V2.283Q.117-.002 2.754-.002h24.492A2.434 2.434 0 0130 2.752v24.315zm-10.049-6.533a6.476 6.476 0 001.9-4.774 6.146 6.146 0 00-1.9-4.6 7.093 7.093 0 00-4.834-1.963 6.152 6.152 0 00-4.658 1.992 6.449 6.449 0 00.059 9.433 5.69 5.69 0 004.658 1.817 6.476 6.476 0 004.775-1.901zm8.613-5.536a1.257 1.257 0 00.264-1.055q-.118-5.508 0-10.957a1.977 1.977 0 00-.439-1.437 1.92 1.92 0 00-1.494-.381H2.93a1.953 1.953 0 00-1.348.381 1.748 1.748 0 00-.41 1.318v11.192a1.248 1.248 0 00.264.938 1.2 1.2 0 00.908.176q3.1 0 3.516.059a1.377 1.377 0 001.172-.118 1.964 1.964 0 00.527-1.112 7.731 7.731 0 012.871-4.424 7.209 7.209 0 014.863-1.611 8.217 8.217 0 014.717 1.7 7.62 7.62 0 012.783 4.278 1.393 1.393 0 001.523 1.289 16.63 16.63 0 013.164-.059A1.3 1.3 0 0028.564 15zm-2.08-11.134a4.886 4.886 0 01.352 2.461 4 4 0 01-.469 2.432 3.4 3.4 0 01-2.285.5 3.518 3.518 0 01-2.373-.527 4.229 4.229 0 01-.5-2.579q0-1.991.41-2.343a5.446 5.446 0 012.637-.352q1.876.002 2.228.411zm-.762 2.345a2.421 2.421 0 00-.381-1.377q-.323-.381-1.26-.147a1.69 1.69 0 00-1.348.147 1.51 1.51 0 00-.352 1.317 3.224 3.224 0 00.322 1.465q.264.412 1.26.353a2.254 2.254 0 001.377-.41 1.822 1.822 0 00.381-1.348zm-8.086 13.477c-.039.156-.029.263.029.321s.019.128-.117.206a1.73 1.73 0 00-.234.146 1.806 1.806 0 01-.264.146l-.234.059a5.5 5.5 0 01-1.816.352 4.968 4.968 0 01-3.984-2.021 4.469 4.469 0 01-1-4.249 1.758 1.758 0 01.059-.293 1.783 1.783 0 01.117-.351.58.58 0 01.176-.206.411.411 0 01.352-.028q.585.059.469 1.112a3.831 3.831 0 001.23 3.838 4.227 4.227 0 004.043.733q1-.352 1.172.234z" fill="#fff"/></svg>