<svg xmlns="http://www.w3.org/2000/svg" width="30.044" height="25.333"><path d="M29.92 3.837a4.249 4.249 0 01-.879 1.289 3.564 3.564 0 00-1.26 1.377 6.322 6.322 0 00-.586 1.523 17.15 17.15 0 00-.264 1.788 17.073 17.073 0 01-4.307 9.668 17.195 17.195 0 01-21.709 3.4 1.388 1.388 0 00-.322-.175 1.319 1.319 0 01-.322-.176 2.354 2.354 0 01-.205-.265.267.267 0 01.029-.381.489.489 0 01.205-.321.4.4 0 01.293-.06c.1.021.214.04.352.06a2.378 2.378 0 00.322.028 11.345 11.345 0 005.391-.469q.879-.233 1.055.294.117.527-.7.762-.527.176-1.553.439t-1.611.439a14.751 14.751 0 006.387 1.172 15.607 15.607 0 0010.547-4.424 17.428 17.428 0 005.039-9.756 4.965 4.965 0 00.117-.82v-1.2c0-.1.009-.293.029-.585a1.783 1.783 0 01.117-.616 4.98 4.98 0 00.205-.5 1.163 1.163 0 01.322-.5q.2-.174.5-.38a5.191 5.191 0 01.645-.382.862.862 0 01-.234-.176l-.117-.059a2.166 2.166 0 00-.557.118 1.615 1.615 0 01-.645.087.59.59 0 01-.439-.381.523.523 0 01-.029-.556 1.582 1.582 0 01.5-.41 2.531 2.531 0 00.469-.323l.352-.527-.176-.176a3.494 3.494 0 01-3.516-.586 4.748 4.748 0 00-5.244-.234 5.088 5.088 0 00-2.842 4.57 4.247 4.247 0 01-.41 2.08q-.294.265-2.168-.088a19.432 19.432 0 01-9.844-5.273 3.68 3.68 0 00-.439 2.813 6 6 0 001.494 2.929 2.5 2.5 0 00.469.323.97.97 0 01.41.352 1.281 1.281 0 010 .556.688.688 0 01-.439.411 1.378 1.378 0 01-.7-.088 2.338 2.338 0 00-.615-.146 5.649 5.649 0 00-.645-.177 5.414 5.414 0 003.281 4.277l.469.118a1.1 1.1 0 01.645.293.612.612 0 01.059.469c-.079.351-.586.566-1.523.644l-.586.118a5.174 5.174 0 003.574 2.812h.41a3.209 3.209 0 01.352.059 1.876 1.876 0 01.41.118.754.754 0 01.234.2.529.529 0 01.059.44q-.118.645-1.23.352a6.217 6.217 0 01-4.395-2.872 2.73 2.73 0 01-.234-.321 4.02 4.02 0 01-.234-.381l-.176-.353a.929.929 0 01-.117-.409 3.242 3.242 0 01.029-.41 1.426 1.426 0 01.146-.469 1.128 1.128 0 01.029-.352q.029-.059-.264-.294l-.234-.175a6.616 6.616 0 01-1.875-3.75 3.1 3.1 0 00-.059-.353 2.812 2.812 0 01-.059-.351V9.25a.4.4 0 01.088-.293 1.075 1.075 0 01.264-.176 1.937 1.937 0 01.469-.146c.352-.037.39-.234.117-.585-.079-.078-.117-.137-.117-.177a6.753 6.753 0 01-.234-5.508q.352-.995.732-1.054t1.084.7a16.75 16.75 0 008.965 5.273 1.892 1.892 0 001.23-.03q.352-.2.41-1.083A6.964 6.964 0 0117.568.838a5.379 5.379 0 015.8 0 4.154 4.154 0 004.629 0q.761-.352 1.113 0 .292.294-.117 1.055a3.018 3.018 0 01-.234.587 4.345 4.345 0 00-.234.527.54.54 0 00.645.058.985.985 0 01.234-.058q.937 0 .527.819z" fill="#fff"/></svg>