<svg xmlns="http://www.w3.org/2000/svg" width="42" height="43"><style/><path id="" d="M2.65 22c0 5.1 1.77 9.44 5.33 13.01 3.55 3.57 7.87 5.35 12.95 5.35 5.08 0 9.4-1.78 12.96-5.35 3.55-3.57 5.32-7.91 5.32-13.01s-1.77-9.44-5.32-13.01c-3.56-3.56-7.88-5.35-12.96-5.35-5.08 0-9.4 1.79-12.95 5.35C4.42 12.56 2.65 16.9 2.65 22zm38.2 0c0 5.52-1.95 10.23-5.84 14.14C31.12 40.05 26.43 42 20.93 42s-10.19-1.95-14.08-5.86C2.96 32.23 1.01 27.52 1.01 22c0-5.52 1.95-10.23 5.84-14.14C10.74 3.95 15.43 2 20.93 2s10.19 1.95 14.08 5.86c3.89 3.91 5.84 8.62 5.84 14.14zm-7.63-7.66l-1.32-1.33-10.97 11.18-7.62-7.82-1.33 1.33 8.95 8.83 12.29-12.19zM20.93 5.67c-.36 0-.67.13-.93.39s-.39.58-.39.94.13.68.39.94c.26.26.57.39.93.39.36 0 .67-.13.94-.39.25-.26.38-.58.38-.94s-.13-.68-.38-.94c-.27-.26-.58-.39-.94-.39zm0 30c-.36 0-.67.13-.93.39s-.39.58-.39.94.13.68.39.94c.26.26.57.39.93.39.36 0 .67-.13.94-.39.25-.26.38-.58.38-.94s-.13-.68-.38-.94c-.27-.26-.58-.39-.94-.39zm-14.94-15c-.36 0-.67.13-.93.39s-.39.58-.39.94.13.68.39.94c.26.26.57.39.93.39.37 0 .68-.13.94-.39.26-.26.39-.58.39-.94s-.13-.68-.39-.94c-.26-.26-.57-.39-.94-.39zm29.88 0c-.36 0-.68.13-.93.39-.26.26-.39.58-.39.94s.13.68.39.94c.25.26.57.39.93.39.36 0 .67-.13.93-.39s.39-.58.39-.94-.13-.68-.39-.94a1.27 1.27 0 00-.93-.39z" fill="#b27cf5"/></svg>