<svg xmlns="http://www.w3.org/2000/svg" width="43" height="43"><style/><path id="" d="M41.21 21.98c0 5.5-1.95 10.2-5.83 14.11-3.89 3.91-8.57 5.86-14.04 5.86-5.48 0-10.16-1.95-14.04-5.86-3.89-3.91-5.83-8.61-5.83-14.11 0-5.51 1.94-10.21 5.83-14.12C11.18 3.95 15.86 2 21.34 2c5.47 0 10.15 1.95 14.04 5.86 3.88 3.91 5.83 8.61 5.83 14.12zm-1.59 0c0-5.07-1.79-9.4-5.36-12.99-3.58-3.6-7.89-5.4-12.92-5.4-5.04 0-9.35 1.8-12.92 5.4-3.58 3.59-5.37 7.92-5.37 12.99 0 5.06 1.79 9.39 5.37 12.98 3.57 3.6 7.88 5.4 12.92 5.4 5.03 0 9.34-1.8 12.92-5.4 3.57-3.59 5.36-7.92 5.36-12.98zM33 14.85c.56.56.52 1.12-.1 1.69L19.28 29.85c-.18.19-.43.28-.74.28-.37 0-.65-.09-.84-.28l-5.32-5.34c-.56-.57-.56-1.13 0-1.69s1.12-.56 1.68 0l4.48 4.5 12.78-12.47c.56-.57 1.12-.57 1.68 0z" fill="#feb960"/></svg>