<svg xmlns="http://www.w3.org/2000/svg" width="15" height="15"><path data-name="" d="M14.18.82A2.713 2.713 0 0115 2.811v9.375a2.8 2.8 0 01-2.812 2.813H2.813a2.8 2.8 0 01-2.812-2.812V2.812A2.8 2.8 0 012.814 0h9.375a2.713 2.713 0 011.991.82zm-2.021 4.043a5.036 5.036 0 01-1.055.292 1.706 1.706 0 00.791-1.025 3.381 3.381 0 01-1.172.44 1.733 1.733 0 00-1.348-.586 1.756 1.756 0 00-1.3.557 1.792 1.792 0 00-.542 1.289 2.428 2.428 0 00.059.439 5.134 5.134 0 01-3.809-1.933 1.9 1.9 0 00-.264.937 1.73 1.73 0 00.85 1.523 1.587 1.587 0 01-.85-.233v.029a1.763 1.763 0 00.425 1.157 1.894 1.894 0 001.069.659 3.54 3.54 0 01-.5.059 1.525 1.525 0 01-.352-.03A1.753 1.753 0 005.89 9.726a3.652 3.652 0 01-2.285.791c-.059 0-.137 0-.234-.015s-.166-.015-.205-.015a5.137 5.137 0 002.813.821 4.866 4.866 0 003.838-1.626 5.339 5.339 0 001.436-3.619.684.684 0 00-.015-.131.6.6 0 01-.015-.1 3.43 3.43 0 00.938-.966z" fill="#616161"/></svg>