<svg xmlns="http://www.w3.org/2000/svg" width="15" height="15.001"><path data-name="" d="M14.18.821A2.713 2.713 0 0115 2.813v9.375a2.8 2.8 0 01-2.812 2.813H2.813a2.8 2.8 0 01-2.812-2.813V2.813A2.8 2.8 0 012.814 0h9.375a2.712 2.712 0 011.991.821zm-8.555 3.75H3.75v6.562h1.875zm0-1.289a.868.868 0 00-.249-.615.883.883 0 00-1.26 0 .866.866 0 00-.249.615.879.879 0 101.758 0zm6.563 3.837a3.818 3.818 0 00-.205-1.317 1.715 1.715 0 00-.513-.792 2.328 2.328 0 00-.586-.337 1.653 1.653 0 00-.571-.1 2.961 2.961 0 00-1.875.615v-.615H6.563v6.562h1.875V7.093l.059-.205a1.066 1.066 0 01.366-.411 1.182 1.182 0 01.718-.2q.732 0 .732.82v4.042h1.875z" fill="#616161"/></svg>