<svg xmlns="http://www.w3.org/2000/svg" width="15" height="15"><path data-name="" d="M14.18.82A2.713 2.713 0 0115 2.812v9.375a2.8 2.8 0 01-2.812 2.812H2.813a2.8 2.8 0 01-2.812-2.812V2.812A2.8 2.8 0 012.814-.001h9.375A2.713 2.713 0 0114.18.82zm-1.992 2.343a.31.31 0 00-.352-.351H3.164a.31.31 0 00-.352.351v8.672a.31.31 0 00.352.351h8.672a.31.31 0 00.352-.351zM9.376 5.624h1.875V3.749H9.376zm-1.875 0a1.9 1.9 0 11-1.318.557A1.8 1.8 0 017.5 5.625zm2.725 1.407h1.025v4.218h-7.5V7.031h1.025a3.521 3.521 0 00-.059.468 2.665 2.665 0 00.82 1.979 2.8 2.8 0 003.926 0 2.667 2.667 0 00.82-1.979 3.609 3.609 0 00-.059-.468z" fill="#616161"/></svg>